<svg width="58" height="71" xmlns="http://www.w3.org/2000/svg" xmlns:xlink="http://www.w3.org/1999/xlink"><defs><path d="M47.782 16.564h.834c1.936 0 3.505 1.623 3.505 3.623v10.341c0 .25-.024.493-.07.728v28.726c0 2.348-1.868 4.263-4.148 4.263H43.76v2.79c0 .745-.6 1.343-1.349 1.343H18.186c-.75 0-1.35-.598-1.35-1.342v-2.791h-4.148c-2.275 0-4.142-1.915-4.142-4.263V28.504c.023-.008.047-.017.07-.027v-8.29c0-2.001 1.575-3.623 3.506-3.623h.055V8.378h2.52v8.186h30.565V8.378h2.52v8.186z" id="a"/><mask id="b" x="-2" y="-2" width="47.575" height="64"><path fill="#fff" d="M6.546 6.378h47.575v64H6.546z"/><use xlink:href="#a"/></mask></defs><g fill="none" fill-rule="evenodd"><use fill="#46AA9C" xlink:href="#a"/><use stroke="#46AA9C" mask="url(#b)" stroke-width="4" xlink:href="#a"/><path d="M51.873 30.878c.047-.235.07-.478.07-.728V19.81c0-2-1.568-3.623-3.504-3.623H11.945c-1.931 0-3.505 1.622-3.505 3.623v8.29l-.071.028v31.477c0 2.348 1.867 4.263 4.142 4.263h35.215c2.28 0 4.147-1.915 4.147-4.263V30.878z" fill="#D3D5D8"/><rect fill="#BEC2CD" x="30.121" y="16.131" width="22" height="48.103" rx="4"/><path d="M23.025 53.006c2.16 2.317 4.557 3.496 7.1 3.519 3.561.03 6.624-2.175 7.98-3.33l-.74-.55a1.03 1.03 0 0 1-.207-1.445 1.047 1.047 0 0 1 1.452-.206l2.897 2.164c.461.341.552.99.209 1.444a1.026 1.026 0 0 1-.83.412c-.213 0-.43-.07-.618-.206l-.467-.348c-1.364 1.232-5.098 4.166-9.69 4.126a10.044 10.044 0 0 1-1.552-.129c-2.562-.406-4.94-1.776-7.089-4.088a1.038 1.038 0 0 1-.1-.127l-.758.566c-.188.14-.405.206-.623.206-.313 0-.626-.14-.83-.412a1.02 1.02 0 0 1 .209-1.44l2.897-2.168a1.047 1.047 0 0 1 1.452.206 1.03 1.03 0 0 1-.208 1.444l-.484.362z" fill="#444D66"/><path d="M45.657 40.528c0 3.416-2.78 6.184-6.216 6.184-3.433 0-6.215-2.768-6.215-6.184 0-3.416 2.782-6.185 6.215-6.185 3.435 0 6.216 2.769 6.216 6.185z" fill="#FFF"/><path d="M42.516 41.528a2.072 2.072 0 0 1-2.075 2.063 2.07 2.07 0 0 1-2.072-2.063 2.07 2.07 0 0 1 2.072-2.064c1.144 0 2.075.926 2.075 2.064z" fill="#50E3C2"/><path d="M27.213 40.528c0 3.416-2.781 6.184-6.216 6.184-3.434 0-6.216-2.768-6.216-6.184 0-3.416 2.782-6.185 6.216-6.185 3.435 0 6.216 2.769 6.216 6.185z" fill="#FFF"/><path d="M24.071 41.528c0 1.137-.93 2.063-2.074 2.063a2.07 2.07 0 0 1-2.073-2.063 2.07 2.07 0 0 1 2.073-2.064c1.143 0 2.074.926 2.074 2.064z" fill="#50E3C2"/><path d="M42.234 68H18.01c-.75 0-1.35-.598-1.35-1.342v-2.779h26.924v2.779c0 .744-.6 1.342-1.349 1.342z" fill="#AFB2BE"/><ellipse fill="#D3D4D8" cx="21.24" cy="46.415" rx="6.66" ry="1.559"/><ellipse fill="#BEC1CD" cx="39.684" cy="46.415" rx="6.66" ry="1.559"/><path d="M14.182 30.774s3.49-6.224 10.578-5.696" stroke="#BEC1CD" stroke-width="2" stroke-linecap="round" stroke-linejoin="round"/><path d="M35.962 26.005s5.88.488 10.73 6.195" stroke="#DBDBDB" stroke-width="2" stroke-linecap="round" stroke-linejoin="round"/><path stroke="#6AFBDA" stroke-width="2" stroke-linecap="round" stroke-linejoin="round" d="M19.952 4.63l4.362 5.504 4.223-6.597 2.712 6.279 5.143-5.548L39.8 7.433"/><path d="M5.563 6.273L2 4m5.507.537L6 1m45.327 3.372L52 1M1 10l4.563-1.416M57 4l-3.71 1.833M57 10l-3.788-2.073" stroke="#5593DC" stroke-width="2" stroke-linecap="round" stroke-linejoin="round"/><path fill="#D3D4D8" d="M12 8h2.519v9H12z"/><path fill="#BEC1CD" d="M45.085 8h2.519v9h-2.519z"/></g></svg>