<svg width="67" height="69" xmlns="http://www.w3.org/2000/svg" xmlns:xlink="http://www.w3.org/1999/xlink"><defs><path d="M49.074 43.88v5.044c0 2.29-1.911 4.157-4.245 4.157H8.787c-2.328 0-4.24-1.867-4.24-4.157v-7.398c-1.19.307-2.527-.01-3.348-.894-1.083-1.175-.863-2.915.485-3.864.52-.367 1.658-.653 2.864-.865V21.96c.443.099.904.15 1.377.15 3.469 0 6.282-2.8 6.282-6.255a6.209 6.209 0 0 0-.67-2.812l3.568-1.177 3.132-6.636H45.41a3.658 3.658 0 0 1 3.663 3.65v29.379c1.205.212 2.344.498 2.864.865 1.347.95 1.568 2.689.484 3.864-.82.885-2.157 1.2-3.348.894zm-9.866 13.358H14.414a1.364 1.364 0 0 1-1.382-1.354V53.08H40.59v2.803c0 .751-.615 1.354-1.38 1.354zM40.896.018h2.094V5.23h-2.094V.017zm-4.762 0h2.094V5.23h-2.094V.017z" id="a"/><mask id="e" x="-2" y="-2" width="56.6" height="61.221"><path fill="#fff" d="M-1.489-1.983h56.6v61.221h-56.6z"/><use xlink:href="#a"/></mask><path id="b" d="M56.499 8.211h2.324V14h-2.324z"/><mask id="f" x="0" y="0" width="2.324" height="5.789" fill="#fff"><use xlink:href="#b"/></mask><path id="c" d="M51.982 8.211h2.324V14h-2.324z"/><mask id="g" x="0" y="0" width="2.324" height="5.789" fill="#fff"><use xlink:href="#c"/></mask><path id="d" d="M6.093 12.135l-.728.641L2.933 9.94l.727-.641z"/><mask id="h" x="0" y="0" width="3.16" height="3.477" fill="#fff"><use xlink:href="#d"/></mask></defs><g transform="translate(-4 1)" fill="none" fill-rule="evenodd"><g transform="translate(15.739 8.378)"><use fill="#D72D25" xlink:href="#a"/><use stroke="#D72D25" mask="url(#e)" stroke-width="4" xlink:href="#a"/></g><path d="M54.385 65.766h-23.68c-.733 0-1.32-.665-1.32-1.493V61.18h26.319v3.092c0 .828-.587 1.493-1.319 1.493z" fill="#8C8C8C"/><path d="M33.975 13.759H61.15a3.658 3.658 0 0 1 3.662 3.651v40.043c0 2.29-1.91 4.156-4.244 4.156H24.525c-2.328 0-4.239-1.867-4.239-4.156V30.489c.444.099.904.151 1.377.151 3.47 0 6.282-2.8 6.282-6.256a6.209 6.209 0 0 0-.669-2.812l3.568-1.177 3.131-6.636z" fill="#B6B6B6"/><path d="M41.808 27.284v30.317c0 2.301.99 4.179 2.195 4.179H60.8c1.209 0 4.067-1.878 4.067-4.18V17.348a3.67 3.67 0 0 0-3.666-3.67H41.808v13.607z" fill="#A1A5B9"/><path d="M38.495 40.871c0 3.303-2.699 5.977-6.035 5.977-3.352 0-6.054-2.674-6.054-5.977 0-3.314 2.702-5.988 6.054-5.988 3.336 0 6.035 2.674 6.035 5.988zm19.531 2.574c0 3.303-2.698 5.977-6.035 5.977-3.352 0-6.053-2.674-6.053-5.977 0-3.314 2.701-5.988 6.053-5.988 3.337 0 6.035 2.674 6.035 5.988z" fill="#FFF"/><path d="M17.142 48.975c-1.035-1.127-.825-2.796.463-3.706 1.291-.916 6.594-1.31 6.59-1.285 0 0-1.521 4.456-2.813 5.371-1.3.91-3.202.744-4.24-.38zm50.765 2.017c1.035-1.128.824-2.796-.463-3.706-1.292-.916-6.595-1.31-6.591-1.285 0 0 1.522 4.455 2.814 5.37 1.299.911 3.202.745 4.24-.379z" fill="#5493DD"/><use stroke="#979797" mask="url(#f)" stroke-width="2" fill="#979797" xlink:href="#b"/><use stroke="#979797" mask="url(#g)" stroke-width="2" fill="#979797" xlink:href="#c"/><path d="M53.301 43.406l2.535-2.535-1.414-1.414-2.535 2.535-2.535-2.535-1.414 1.414 2.535 2.535-2.535 2.535 1.414 1.415 2.535-2.535 2.535 2.535 1.414-1.415-2.535-2.535zM33.96 40.899l2.535-2.535-1.415-1.414-2.535 2.535-2.535-2.535-1.414 1.414 2.535 2.535-2.535 2.535 1.414 1.414 2.535-2.535 2.535 2.535 1.415-1.414-2.535-2.535z" fill="#444D66"/><path d="M20.756 19.404c-1.846-1.023-4.311-4.012-4.393-5.39-.058-.969-.079-1.423.082-1.811 1.56-3.782 5.138-.65 4.264 1.085-.246.489-.412.554-.784.954-3.224 3.47-8.773-1.586-7.42-5.26.13-.352.618-1.578 1.419-2.086.966-.613 2.292-.414 2.726.56 1.224 2.747-1.947 3.444-3.856 2.746-2.11-.77-4.862-3.074-3.613-6.408.598-1.596 2.745-1.046 3.448-.436.339.294 1.214 1.442 0 2.41-1 .8-3.351.678-4.002.365C5.113 4.442 4.9 1.873 5.093 0" stroke="#FEC722" stroke-width="1.2"/><g transform="translate(3.281 29.766)"><path d="M5.75 7.861l5.268-4.522s.93-.46 1.564.327.231 1.22.231 1.22L7.647 9.543" fill="#858585"/><path fill="#9C9C9C" d="M1.745 8.363L2.967 7.06l2.177-.394 2.928 2.49.76 2.918-1.392 1.199"/><path fill="#D8D8D8" d="M2.304 11.363l-.625-2.929 2.304-.513 2.899 2.458.58 2.88-2.278.51z"/><use stroke="#979797" mask="url(#h)" stroke-width="2" fill="#D8D8D8" xlink:href="#d"/></g><path d="M38.06 53.701c2.392.456 2.608 3.457 5.121 3.946 2.209.43 8.547-.236 4.01-3.63-.988-.738-.72-.617-1.915-1.162-.209-.095-2.137-.932-2.703-.601-.566.33-2.06.434-2.595.601-1.036.324-.12.18-1.19.385l-.728.461z" fill="#E34E40"/><path d="M32.36 55.97s8.786-7.868 22.286.013" stroke="#444D66" stroke-width="2" stroke-linecap="round" stroke-linejoin="round"/><path d="M25.824 34.927s3.489-6.224 10.578-5.696" stroke="#8C8C8C" stroke-width="2" stroke-linecap="round" stroke-linejoin="round"/><path d="M47.603 30.158s5.88.488 10.731 6.195" stroke="#707070" stroke-width="2" stroke-linecap="round" stroke-linejoin="round"/></g></svg>