<svg width="74" height="68" xmlns="http://www.w3.org/2000/svg" xmlns:xlink="http://www.w3.org/1999/xlink"><defs><path d="M68.71 33.267l.029-.116c2.352-6.782 3.143-11.08 3.109-13.945l.072-.114a14.6 14.6 0 0 0-.029-.228c.254-2.3-1.206-5.225-2.798-6.935-.493-.53-1.285-1.071-2.318-1.601-4.948-3.62-12.72-4.703-20.337-4.393-7.619-.31-15.39.772-20.338 4.393-1.033.53-1.825 1.07-2.318 1.6-1.592 1.711-3.052 4.636-2.798 6.936a14.6 14.6 0 0 0-.029.228l.084.134.024.113c-.068.354-.125.717-.17 1.087l2.122 12.915c.749 4.932.786 7.055 1.08 7.832V58.27c0 2.133 1.898 4.203 4.167 4.203H63.34c2.27 0 4.342-2.07 4.342-4.203V41.327c.486-1.176.552-2.801.635-4.465.174-1.49.324-2.922.394-3.595zm-11.18 33.41H33.259a1.363 1.363 0 0 1-1.354-1.37v-2.833h26.98v2.832c0 .758-.605 1.372-1.353 1.372z" id="a"/><mask id="b" x="-2" y="-2" width="55.026" height="64.793"><path fill="#fff" d="M18.894 3.885H73.92v64.793H18.894z"/><use xlink:href="#a"/></mask></defs><g transform="translate(0 -1)" fill="none" fill-rule="evenodd"><use fill="#FDAF13" xlink:href="#a"/><use stroke="#FDAF13" mask="url(#b)" stroke-width="4" xlink:href="#a"/><path d="M24.096 41.173V58.27c0 2.133 1.897 4.203 4.166 4.203H63.34c2.27 0 4.342-2.07 4.342-4.203V41.327c.86-2.078.406-5.565 1.057-8.176 5.78-16.664 2.128-18.333 0-20.587-1.96-2.076-11.217-4.834-19.042-5.828-13.11-1.665-27.354 1.637-28.803 13.69l2.121 12.915c.749 4.932.786 7.055 1.08 7.832z" fill="#BEBEBE"/><ellipse fill="#FFF" cx="37.092" cy="41.407" rx="6.226" ry="6.305"/><ellipse fill="#F5A623" cx="35.017" cy="39.305" rx="2.075" ry="2.102"/><path d="M71.566 21.075c-.328 5.205-2.814 11.791-2.814 11.791s-.699 6.945-1.07 8.46v16.945c0 2.133-2.072 4.203-4.342 4.203H46.856c-.091 0-.394-28.318-.394-27.632 6.533-15.31.329-26.464.303-26.464.026 0 4.449.484 7.626.841 5.459.614 9.867 2.194 11.458 3.062.19.103 6.046 3.588 5.717 8.794z" fill="#A1A5B9"/><ellipse fill="#FFF" cx="55.772" cy="41.407" rx="6.226" ry="6.305"/><ellipse fill="#F5A623" cx="53.696" cy="39.305" rx="2.075" ry="2.102"/><path d="M57.53 66.678H33.259a1.363 1.363 0 0 1-1.354-1.372v-2.832h26.98v2.832c0 .758-.605 1.372-1.353 1.372z" fill="#8C8C8C"/><path d="M32.215 50.8c-.28 0-.55-.116-.737-.316a1.021 1.021 0 0 1-.3-.735c0-.274.103-.547.3-.746.395-.4 1.08-.39 1.474 0 .187.2.3.472.3.746 0 .273-.113.547-.3.735a1.055 1.055 0 0 1-.737.315zm.208 4.445c-.282 0-.55-.107-.737-.305a1.064 1.064 0 0 1-.301-.736c0-.285.113-.557.311-.746.363-.389 1.069-.4 1.463 0 .187.19.301.461.301.746 0 .273-.114.547-.3.736a1.02 1.02 0 0 1-.737.305zm-3.633.925c-.27 0-.54-.116-.736-.305a1.108 1.108 0 0 1-.301-.747c0-.273.113-.547.3-.746.385-.378 1.09-.388 1.474 0a1.075 1.075 0 0 1 .001 1.493 1.068 1.068 0 0 1-.738.304zm31.35-5.507a1 1 0 0 1-.736-.305 1.075 1.075 0 0 1-.312-.746c0-.273.113-.546.312-.746.384-.389 1.079-.389 1.463 0 .196.2.3.462.3.746 0 .273-.104.546-.3.746-.197.2-.457.305-.727.305zm-.217 4.455c-.27 0-.541-.115-.737-.304a1.107 1.107 0 0 1-.301-.746c0-.274.113-.548.3-.746.395-.39 1.09-.39 1.474 0a1.074 1.074 0 0 1 .001 1.492 1.088 1.088 0 0 1-.737.304zm3.632.915a1.04 1.04 0 0 1-.737-.305 1.06 1.06 0 0 1-.001-1.482c.385-.389 1.09-.389 1.474 0 .187.199.301.462.301.746 0 .274-.114.536-.3.736a1.04 1.04 0 0 1-.737.305z" fill="#DBDBDB"/><path d="M39.737 56.17c-.223-.439-.074-1.083.332-1.44.159-.139 2.477-2.101 6.155-1.464 2.05.355 3.078.628 5.811 1.836.045.02-.43-.176-.396-.152.255.174.535.486.519.797-.017.314-.331.627-.528.78-.42.326-3.937-1.138-5.53-1.41-2.995-.518-5.19 1.172-5.224 1.2-.251.222-.542.28-.78.189a.673.673 0 0 1-.359-.337z" fill="#444D66"/><path d="M16.216 12.506h-2.234v-1.523c0-.511.105-.914.315-1.207.21-.293.67-.71 1.38-1.252 1.085-.82 1.627-1.688 1.627-2.605 0-.692-.212-1.241-.635-1.647-.424-.406-.976-.61-1.656-.61-1.573 0-2.501 1.072-2.784 3.215l-2.497-.44c.153-1.601.754-2.859 1.804-3.772 1.05-.914 2.309-1.37 3.775-1.37 1.459 0 2.665.426 3.62 1.28.955.853 1.432 1.915 1.432 3.186 0 .631-.132 1.231-.395 1.799-.264.568-.563 1.007-.9 1.32-.335.312-1.046.859-2.13 1.64-.306.219-.5.431-.585.638-.084.207-.13.656-.137 1.348zm.458 1.601v2.82h-2.692v-2.82h2.692zM6.693 29.298H4.46v-1.523c0-.511.105-.914.315-1.207.21-.293.67-.71 1.38-1.252 1.085-.82 1.628-1.688 1.628-2.605 0-.692-.212-1.241-.636-1.647-.424-.406-.976-.61-1.656-.61-1.573 0-2.5 1.072-2.783 3.215l-2.498-.44c.153-1.601.754-2.859 1.805-3.772 1.05-.914 2.308-1.37 3.774-1.37 1.46 0 2.666.426 3.62 1.28.955.853 1.432 1.915 1.432 3.186 0 .631-.131 1.231-.395 1.799-.263.567-.563 1.007-.9 1.32-.335.311-1.045.859-2.13 1.64-.305.219-.5.431-.584.638-.084.207-.13.656-.138 1.348zm.459 1.601v2.82H4.459V30.9h2.693z" fill="#FFF"/><path d="M41.422 29.18c1.299 1.71 5.012 5.64 5.015 5.644.004-.004 3.717-3.934 5.016-5.644 2.015-2.654 4.13-4.178 6.438-5.188 4.43-.933 9.808-.03 12.951-2.939.54-.5.856-1.128.994-1.827l.084-.134a14.6 14.6 0 0 0-.029-.228c.254-2.3-1.206-5.225-2.798-6.935-.493-.53-1.285-1.071-2.318-1.601-4.948-3.62-12.72-4.703-20.337-4.393-7.619-.31-15.39.772-20.338 4.393-1.033.53-1.825 1.07-2.318 1.6-1.592 1.711-3.052 4.636-2.798 6.936a14.6 14.6 0 0 0-.029.228l.084.134c.138.699.453 1.327.994 1.827 3.143 2.91 8.52 2.006 12.951 2.939 2.308 1.01 4.423 2.534 6.438 5.188z" fill="#D3D4D8"/><path d="M57.358 6.639c-3.446-.646-7.201-.827-10.92-.676-3.72-.15-7.475.03-10.921.676 2.102 1.009 4.046 2.495 5.905 4.944 1.299 1.71 5.012 5.64 5.015 5.644.004-.004 3.717-3.934 5.016-5.644 1.859-2.45 3.803-3.935 5.905-4.944z" fill-opacity=".5" fill="#B6B6B6"/><g transform="translate(38.938 10.867)"><circle stroke="#78D7A8" stroke-width="1.4" fill="#FFF" cx="7.5" cy="8.5" r="7.5"/><path d="M7.996 10.343H6.619v-.938c0-.315.065-.563.195-.744.129-.18.413-.437.85-.771.669-.505 1.003-1.04 1.003-1.606 0-.426-.131-.764-.392-1.014s-.601-.376-1.02-.376c-.97 0-1.541.66-1.716 1.981l-1.538-.27c.094-.988.464-1.763 1.111-2.326.647-.563 1.423-.844 2.326-.844.9 0 1.643.263 2.231.789.588.526.882 1.18.882 1.963 0 .39-.08.759-.243 1.109-.162.35-.347.62-.554.813-.207.192-.645.53-1.313 1.011-.188.135-.309.265-.36.393-.052.127-.08.404-.085.83zm.282.987v1.738H6.62V11.33h1.66z" fill="#444D66"/><path d="M7.373 16.585a8.097 8.097 0 1 0 0-16.195v16.195z" fill-opacity=".6" fill="#4990E2" style="mix-blend-mode:overlay"/></g></g></svg>